<svg width="256" height="256" viewBox="0 0 24 24" xmlns="http://www.w3.org/2000/svg" fill="none" stroke="currentColor" stroke-width="2" stroke-linecap="round" stroke-linejoin="round">
  <circle cx="12" cy="12" r="3"></circle>
  <path d="
  M19.4 15a1.65 1.65 0 0 0 .33 1.82l.06.06a2 2 0 1 1-2.83 2.83l-.06-.06a1.65 
  1.65 0 0 0-1.82-.33 1.65 1.65 0 0 0-.98 1.51V21a2 2 0 0 1-2 
  2h-1.5a2 2 0 0 1-2-2v-.09a1.65 1.65 0 0 0-1.51-.98 1.65 1.65 
  0 0 0-1.82.33l-.06.06a2 2 0 1 1-2.83-2.83l.06-.06a1.65 1.65 
  0 0 0 .33-1.82 1.65 1.65 0 0 0-1.51-.98H3a2 2 0 0 1-2-2v-1.5a2
  2 0 0 1 2-2h.09c.76 0 1.45-.29 1.51-.98a1.65 1.65 0 0 
  0-.33-1.82l-.06-.06a2 2 0 1 1 2.83-2.83l.06.06c.48.48 1.14.73 
  1.82.33h.01a1.65 1.65 0 0 0 .98-1.51V3a2 2 0 0 1 2-2h1.5a2 2 0 
  0 1 2 2v.09c0 .76.29 1.45.98 1.51.67.05 1.34-.15 1.82-.33l.06-.06a2 
  2 0 1 1 2.83 2.83l-.06.06a1.65 1.65 0 0 0-.33 1.82v.01c.2.67.68 
  1.34 1.51.98H21a2 2 0 0 1 2 2v1.5a2 2 0 0 1-2 2h-.09c-.76 0-1.45.29-1.51.98z">
  </path>
</svg>
